<?xml version="1.0" encoding="iso-8859-1"?>
<!-- Generator: Adobe Illustrator 19.0.0, SVG Export Plug-In . SVG Version: 6.00 Build 0)  -->
<svg version="1.1" id="Layer_1" xmlns="http://www.w3.org/2000/svg" xmlns:xlink="http://www.w3.org/1999/xlink" x="0px" y="0px"
	 viewBox="0 0 512 512" style="enable-background:new 0 0 512 512;" xml:space="preserve">
<g>
	<g>
		<g>
			<path d="M365.093,0H171.515c-13.212,0-23.96,10.748-23.96,23.96v108.478c-14.123,3.572-24.605,16.382-24.605,31.599v162.157
				c0,42.277,34.395,76.672,76.672,76.672c8.168,0,16.035-1.296,23.423-3.673v62.047h-6.409c-7.927,0-14.376,6.449-14.376,14.376
				v22.008c0,7.927,6.449,14.376,14.376,14.376h103.34c7.927,0,14.376-6.449,14.376-14.376v-22.008
				c0-7.927-6.449-14.376-14.376-14.376h-6.409V335.171h51.523c13.211,0,23.96-10.748,23.96-23.96V23.96
				C389.053,10.748,378.304,0,365.093,0z M199.622,386.892c-33.47,0-60.699-27.229-60.699-60.699V164.036
				c0-6.27,3.492-11.736,8.631-14.566v161.74c0,13.212,10.748,23.96,23.96,23.96h51.531v47.015
				C215.834,385.214,207.921,386.892,199.622,386.892z M318.381,477.213v18.813H218.236v-18.813H318.381z M295.817,208.427v-67.251
				c11.194-8.537,17.753-21.666,17.753-35.947c0-24.958-20.304-45.262-45.262-45.262c-24.957,0-45.262,20.304-45.262,45.262
				c0,14.28,6.559,27.41,17.753,35.947v67.251c-11.194,8.537-17.753,21.666-17.753,35.947c0,17.903,10.45,33.41,25.568,40.747
				h-43.023c-4.403,0-7.987-3.582-7.987-7.987V58.037c0-4.404,3.583-7.987,7.987-7.987h125.424c4.404,0,7.987,3.582,7.987,7.987
				v219.098c0,4.404-3.582,7.987-7.987,7.987H288c15.119-7.337,25.569-22.844,25.569-40.747
				C313.57,230.094,307.012,216.965,295.817,208.427z M239.019,244.374c0-10.242,5.217-19.571,13.955-24.955
				c2.36-1.454,3.797-4.027,3.797-6.799v-75.636c0-2.772-1.438-5.346-3.797-6.799c-8.739-5.384-13.955-14.713-13.955-24.955
				c0-16.149,13.139-29.289,29.289-29.289s29.289,13.139,29.289,29.289c0,10.242-5.217,19.571-13.955,24.955
				c-2.36,1.454-3.797,4.027-3.797,6.799v75.636c0,2.772,1.438,5.346,3.797,6.799c8.739,5.384,13.955,14.713,13.955,24.955
				c0,16.149-13.139,29.289-29.289,29.289C252.158,273.663,239.019,260.524,239.019,244.374z M275.752,335.171h21.845V461.24
				h-58.578v-69.299C258.9,379.982,272.928,359.266,275.752,335.171z M239.019,372.314v-37.142h20.633
				C257.451,349.96,249.889,363.015,239.019,372.314z M365.093,319.198h-88.798v-18.103h54.722c13.211,0,23.96-10.748,23.96-23.96
				V58.037c0-13.212-10.749-23.96-23.96-23.96H205.591c-13.212,0-23.96,10.748-23.96,23.96v219.098
				c0,13.212,10.748,23.96,23.96,23.96h54.73v18.103h-88.807c-4.403,0-7.987-3.582-7.987-7.987V23.96
				c0-4.404,3.583-7.987,7.987-7.987h193.577c4.404,0,7.987,3.582,7.987,7.987v287.251h0.001
				C373.08,315.615,369.497,319.198,365.093,319.198z"/>
			<circle cx="283.749" cy="442.444" r="7.632"/>
			<circle cx="252.868" cy="442.443" r="7.632"/>
		</g>
	</g>
</g>
<g>
</g>
<g>
</g>
<g>
</g>
<g>
</g>
<g>
</g>
<g>
</g>
<g>
</g>
<g>
</g>
<g>
</g>
<g>
</g>
<g>
</g>
<g>
</g>
<g>
</g>
<g>
</g>
<g>
</g>
</svg>
