<svg height="412pt" viewBox="0 -11 412.58667 412" width="412pt" xmlns="http://www.w3.org/2000/svg"><path d="m188.753906 257.398438c-3.214844 0-6.074218-2.273438-6.699218-5.546876-1.046876-5.480468-1.574219-11.105468-1.574219-16.71875 0-40.019531 26.953125-75.253906 65.546875-85.6875 3.605468-.964843 7.386718 1.167969 8.371094 4.8125.980468 3.640626-1.171876 7.386719-4.8125 8.375-32.644532 8.820313-55.453126 38.632813-55.453126 72.496094 0 4.761719.449219 9.527344 1.332032 14.160156.707031 3.707032-1.726563 7.28125-5.425782 7.988282-.433593.082031-.867187.121094-1.285156.121094zm24.8125-.066407c-2.992187 0-5.738281-1.984375-6.574218-5.019531-1.53125-5.574219-2.3125-11.359375-2.3125-17.179688 0-35.589843 28.953124-64.550781 64.546874-64.550781s64.546876 28.960938 64.546876 64.550781c0 5.789063-.773438 11.542969-2.289063 17.089844-1 3.640625-4.785156 5.746094-8.386719 4.785156-3.636718-1-5.777344-4.753906-4.785156-8.386718 1.199219-4.378906 1.808594-8.914063 1.808594-13.484375 0-28.066407-22.835938-50.902344-50.894532-50.902344-28.058593 0-50.894531 22.835937-50.894531 50.902344 0 4.597656.613281 9.164062 1.820313 13.566406 1 3.632813-1.132813 7.390625-4.773438 8.386719-.597656.164062-1.210937.242187-1.8125.242187zm136.214844-.351562c-.414062 0-.828125-.035157-1.246094-.113281-3.707031-.6875-6.160156-4.246094-5.476562-7.953126.835937-4.519531 1.261718-9.152343 1.261718-13.78125 0-33.851562-22.792968-63.664062-55.421874-72.496093-3.640626-.980469-5.792969-4.734375-4.804688-8.367188.980469-3.65625 4.757812-5.820312 8.367188-4.808593 38.574218 10.433593 65.511718 45.667968 65.511718 85.675781 0 5.453125-.5 10.925781-1.484375 16.257812-.609375 3.285157-3.480469 5.585938-6.707031 5.585938zm0 0"/><path d="m269.226562 182.566406c-1.933593 0-3.78125-.820312-5.074218-2.257812l-47.308594-52.566406c-1.804688-2.007813-2.257812-4.882813-1.160156-7.347657 1.09375-2.460937 3.542968-4.046875 6.234375-4.046875h94.613281c2.695312 0 5.140625 1.585938 6.234375 4.046875 1.101563 2.464844.644531 5.339844-1.160156 7.347657l-47.308594 52.566406c-1.289063 1.4375-3.136719 2.257812-5.070313 2.257812zm-31.980468-52.566406 31.980468 35.53125 31.980469-35.53125zm0 0"/><path d="m316.535156 130h-94.617187c-2.445313 0-4.707031-1.308594-5.917969-3.433594-1.222656-2.121094-1.207031-4.734375.027344-6.839844l15.984375-27.308593c1.226562-2.09375 3.46875-3.378907 5.894531-3.378907h62.640625c2.425781 0 4.664063 1.289063 5.890625 3.378907l15.988281 27.308593c1.234375 2.105469 1.246094 4.71875.027344 6.839844-1.210937 2.125-3.472656 3.433594-5.917969 3.433594zm-82.707031-13.652344h70.796875l-7.992188-13.65625h-54.8125zm0 0"/><path d="m337.992188 389.414062h-137.53125c-41.136719 0-74.59375-33.460937-74.59375-74.59375v-61.300781c0-3.773437 3.050781-6.828125 6.824218-6.828125h273.070313c3.773437 0 6.824219 3.054688 6.824219 6.828125v61.300781c0 41.132813-33.457032 74.59375-74.59375 74.59375zm-198.472657-129.066406v54.472656c0 33.601563 27.339844 60.941407 60.941407 60.941407h137.53125c33.601562 0 60.941406-27.34375 60.941406-60.941407v-54.472656zm0 0"/><path d="m132.691406 260.347656c-73.164062 0-132.691406-58.328125-132.691406-130.027344 0-71.703124 59.527344-130.027343 132.691406-130.027343 3.773438 0 6.828125 3.054687 6.828125 6.828125v246.398437c0 3.773438-3.054687 6.828125-6.828125 6.828125zm-6.824218-246.214844c-62.472657 3.472657-112.214844 54.261719-112.214844 116.1875 0 61.925782 49.742187 112.710938 112.214844 116.183594zm0 0"/><path d="m282.878906 287.011719h-109.226562c-3.773438 0-6.824219-3.050781-6.824219-6.824219s3.050781-6.828125 6.824219-6.828125h109.226562c3.773438 0 6.828125 3.054687 6.828125 6.828125s-3.054687 6.824219-6.828125 6.824219zm0 0"/><path d="m204.375 355.28125c-24.46875 0-44.375-19.90625-44.375-44.375 0-3.773438 3.054688-6.828125 6.828125-6.828125s6.824219 3.054687 6.824219 6.828125c0 16.941406 13.78125 30.71875 30.722656 30.71875 3.773438 0 6.824219 3.054688 6.824219 6.828125s-3.050781 6.828125-6.824219 6.828125zm0 0"/></svg>