<?xml version="1.0" encoding="utf-8"?>
<!-- Generator: Adobe Illustrator 16.0.4, SVG Export Plug-In . SVG Version: 6.00 Build 0)  -->
<!DOCTYPE svg PUBLIC "-//W3C//DTD SVG 1.1//EN" "http://www.w3.org/Graphics/SVG/1.1/DTD/svg11.dtd">
<svg version="1.1" id="Capa_1" xmlns="http://www.w3.org/2000/svg" xmlns:xlink="http://www.w3.org/1999/xlink" x="0px" y="0px"
	 width="612px" height="612px" viewBox="0 90.001 612 612" enable-background="new 0 90.001 612 612" xml:space="preserve">
<path fill="none" stroke="#000000" stroke-width="15" stroke-linecap="round" stroke-miterlimit="10" d="M122.4,156.736
	c-0.9,12.832-2.932,23.314,6.681,39.901c6.874,11.86,21.419,31.17,45.086,31.17c18.322,0,179.333,0,179.333,0s63,4.024,82,22.396
	c13.635,13.184,30.167,41.297,33.526,68.619c0,0,2.604,25.248-6.193,44.179c-6.085,13.091-25.79,22.292-31.333,26.499
	c-6.633,5.034-42.884,6.967-50.5,6.5c-49.667,0-119.547,1.062-132.003,2.429C220.066,401.597,186,457.709,181,471
	c-5.703,15.16-11.112,49.104,20.36,83.101c28.14,30.398,50.315,40.104,63.911,40.105l16.4,1.045"/>
<g>
	<g>
		<path d="M72.747,95.102H61.2c-33.405,0-58.558,24.857-61.2,61.2V625.5c0,5.488,4.345,9.985,9.823,10.199c0.122,0,0.254,0,0.377,0
			c5.324,0,9.781-4.11,10.17-9.454c1.795-24.46,18.584-41.545,40.831-41.545h11.546c16.126,0,29.254-13.127,29.254-29.254V124.354
			C102,108.229,88.873,95.102,72.747,95.102z M81.6,555.446c0,4.876-3.978,8.854-8.854,8.854H61.2
			c-16.024,0-30.151,5.722-40.799,15.605l-0.031-422.86c1.795-24.459,18.585-41.545,40.831-41.545h11.547
			c4.875,0,8.854,3.978,8.854,8.854v431.092H81.6z"/>
	</g>
</g>
<g>
	<g>
		<path d="M611.968,155.557c-2.608-35.599-27.764-60.455-61.169-60.455h-11.547c-16.126,0-29.254,13.127-29.254,29.254v431.093
			c0,16.126,13.127,29.254,29.254,29.254h11.547c22.246,0,39.035,17.084,40.831,41.544c0.397,5.344,4.855,9.455,10.169,9.455
			c0.122,0,0.245,0,0.378,0c5.479-0.214,9.823-4.712,9.823-10.2L611.968,155.557z M591.599,579.905
			c-10.647-9.884-24.773-15.606-40.8-15.606h-11.547c-4.875,0-8.854-3.978-8.854-8.854V124.354c0-4.876,3.979-8.854,8.854-8.854
			h11.547c22.246,0,39.035,17.084,40.8,40.799V579.905z"/>
	</g>
</g>
<g>
	<g>
		<path d="M550.799,564.301h-11.547c-4.875,0-8.854-3.979-8.854-8.854V156.3c0-5.63-4.569-10.2-10.199-10.2H91.8
			c-5.63,0-10.2,4.57-10.2,10.2v399.146c0,4.876-3.978,8.854-8.854,8.854H61.2c-33.405,0-58.558,24.858-61.2,61.2
			c0,39.372,32.028,71.399,71.399,71.399h469.198c39.373,0,71.4-32.028,71.37-72.146
			C609.357,589.158,584.204,564.301,550.799,564.301z M540.6,676.5H71.4c-28.121,0-51-22.878-51.03-50.255
			c1.795-24.46,18.584-41.545,40.83-41.545h11.547c16.126,0,29.254-13.126,29.254-29.254V166.501H510v388.945
			c0,16.126,13.127,29.255,29.255,29.255H550.8c22.246,0,39.035,17.084,40.8,40.799C591.599,653.621,568.721,676.5,540.6,676.5z"/>
	</g>
</g>
<g>
	<g>
		<path d="M382.705,622.695l-71.399-71.398c-3.986-3.989-10.436-3.989-14.423,0c-3.987,3.988-3.989,10.437,0,14.422l71.399,71.4
			c1.989,1.988,4.601,2.988,7.211,2.988c2.612,0,5.223-1,7.212-2.988C386.692,633.131,386.692,626.684,382.705,622.695z"/>
	</g>
</g>
<g>
	<g>
		<path d="M382.705,551.295c-3.989-3.988-10.438-3.988-14.423,0l-71.4,71.4c-3.989,3.986-3.989,10.436,0,14.424
			c1.988,1.988,4.601,2.988,7.211,2.988c2.611,0,5.225-1,7.211-2.988l71.401-71.4C386.692,561.729,386.692,555.283,382.705,551.295z
			"/>
	</g>
</g>
<g>
	<g>
		<path d="M296.186,346.596l-35.701-61.199c-3.661-6.264-13.975-6.264-17.626,0l-35.7,61.199
			c-2.836,4.865-1.193,11.118,3.672,13.954c4.875,2.847,11.117,1.193,13.954-3.672l26.887-46.095l26.888,46.094
			c1.896,3.244,5.314,5.059,8.822,5.059c1.744,0,3.509-0.447,5.13-1.387C297.377,357.704,299.02,351.461,296.186,346.596z"/>
	</g>
</g>
<g>
	<g>
		<path d="M417.597,301.578l-10.67-18.289c-4.457-7.629-12.394-12.188-21.234-12.188c-8.842,0-16.777,4.559-21.228,12.199
			l-10.669,18.289c-4.488,7.69-4.52,16.901-0.082,24.622c4.427,7.723,12.395,12.332,21.308,12.332h21.34
			c8.904,0,16.882-4.621,21.317-12.342C422.114,318.479,422.085,309.27,417.597,301.578z M399.971,316.042
			c-0.438,0.785-1.51,2.101-3.61,2.101h-21.339c-2.103,0-3.173-1.315-3.62-2.101c-0.447-0.786-1.052-2.367,0.009-4.183
			l10.671-18.289c1.061-1.805,2.723-2.07,3.61-2.07c0.887,0,2.549,0.265,3.601,2.07l10.67,18.289
			C401.021,313.676,400.42,315.256,399.971,316.042z"/>
	</g>
</g>
<g>
	<g>
		<path d="M306.071,463.947l-10.669-18.289c-4.457-7.629-12.393-12.188-21.236-12.188s-16.778,4.562-21.226,12.199l-10.669,18.288
			c-4.488,7.691-4.519,16.902-0.082,24.623c4.426,7.722,12.393,12.332,21.308,12.332h21.339c8.905,0,16.881-4.621,21.319-12.342
			C310.59,480.849,310.56,471.639,306.071,463.947z M288.446,478.411c-0.438,0.785-1.509,2.102-3.611,2.102h-21.339
			c-2.101,0-3.172-1.314-3.621-2.102s-1.05-2.366,0.011-4.185l10.669-18.286c1.061-1.807,2.723-2.07,3.611-2.07
			c0.887,0,2.549,0.266,3.6,2.07l10.669,18.286C289.497,476.046,288.895,477.625,288.446,478.411z"/>
	</g>
</g>
<g>
	<g>
		<path d="M436.984,421.896c-22.501,0-40.801,18.299-40.801,40.8c0,22.5,18.3,40.802,40.801,40.802c22.502,0,40.8-18.3,40.8-40.801
			C477.784,440.194,459.486,421.896,436.984,421.896z M436.984,483.096c-11.25,0-20.4-9.148-20.4-20.399
			c0-11.252,9.15-20.398,20.4-20.398c11.251,0,20.399,9.148,20.399,20.399C457.385,473.946,448.235,483.096,436.984,483.096z"/>
	</g>
</g>
<g>
	<g>
		<path d="M436.984,483.096c-5.631,0-10.2,4.569-10.2,10.199v30.6c0,5.631,4.569,10.2,10.2,10.2c5.63,0,10.199-4.569,10.199-10.2
			v-30.6C447.185,487.665,442.614,483.096,436.984,483.096z"/>
	</g>
</g>
</svg>
