<?xml version="1.0" encoding="utf-8"?>
<!-- Generator: Adobe Illustrator 21.0.2, SVG Export Plug-In . SVG Version: 6.00 Build 0)  -->
<svg version="1.1" id="open-book_xA0_Image_1_" xmlns="http://www.w3.org/2000/svg" xmlns:xlink="http://www.w3.org/1999/xlink"
	 x="0px" y="0px" viewBox="0 0 300 243.1" style="enable-background:new 0 0 300 243.1;" xml:space="preserve">
<g>
	<g>
		<path d="M5.1,136.7c0-30.9,0-61.8,0-92.7c0-5.2,2.5-7.4,7.6-7.6c6.7-0.2,13.4-0.1,20-0.1c1.4,0,3-1.6,3-3c0-6.8,0-13.6,0-20.4
			c0-2,0.6-3.8,1.6-5.4c0.9-1.5,2.5-2,4.1-2.3c2.2-0.5,4.4-0.7,6.6-0.8C53.1,4.2,58.2,3.9,63.3,4c3.7,0,7.3,0.5,11,0.9
			c3.5,0.4,7,0.8,10.5,1.5c5.3,1.1,10.7,2.4,15.9,3.9c6.6,1.9,13,4.7,19,7.9c5,2.7,9.8,5.7,14.1,9.3c2.7,2.3,5.4,4.5,7.9,7
			c2,2,3.8,4.2,5.6,6.3c0.6,0.7,1.2,0.8,2.1,0.9c1.8,0.2,3-0.4,4.1-1.7c1.4-1.7,2.8-3.4,4.3-5s3-3.2,4.8-4.5
			c3.6-2.9,7.3-5.7,11.1-8.3c5.9-4,12.3-7,18.8-9.5c5.6-2.2,11.4-3.9,17.3-5.2c3.8-0.8,7.7-1.5,11.6-2c4.5-0.6,8.9-0.9,13.4-1.2
			c3.9-0.2,7.9-0.4,11.8-0.2c3.9,0.2,7.9,0.6,11.8,1.2c4.1,0.6,5.6,3.4,5.7,7.3c0.2,6.9,0.1,13.8,0.1,20.8c0,1.6,1.5,3.1,3.1,3.1
			c6.5,0,13,0,19.6,0c2,0,3.8,0.6,5.4,1.6c1.5,0.9,1.8,2.5,2.3,3.9c0.2,0.7,0.3,1.6,0.3,2.3c0,61.7,0,123.4,0,185.1
			c0,4.3-2,6.6-6,7.5c-0.5,0.1-1.1-0.1-1.6-0.2c-6.1-1.7-12.2-3.6-18.4-5.1c-5-1.2-10-2.1-15.1-3c-3.4-0.6-6.7-1.2-10.1-1.7
			c-2.4-0.3-4.8-0.6-7.2-0.7c-4.5-0.4-9.1-0.8-13.6-0.9c-6.6-0.2-13.2-0.3-19.9-0.2c-3.3,0-6.6,0.3-9.8,0.7
			c-6.2,0.9-12.3,1.9-18.4,3c-6.1,1.1-11.9,3.2-17.7,5.4c-1.7,0.6-3.4,1.3-5.1,2.2c-1.7,0.8-3.2,0.5-4.8-0.2
			c-7.1-3.3-14.6-5.7-22.2-7.4c-4.3-1-8.7-1.6-13.1-2.2c-4.4-0.6-8.8-1-13.2-1.2c-7.1-0.2-14.3-0.3-21.4-0.2
			c-3.9,0-7.7,0.6-11.6,0.9c-2.6,0.2-5.3,0.4-7.9,0.7c-2.8,0.3-5.7,0.7-8.5,1.2c-3.4,0.6-6.7,1.2-10,1.9c-3.8,0.8-7.6,1.6-11.3,2.5
			c-5.4,1.4-10.8,3-16.1,4.4c-1.6,0.4-2.8-0.4-4-1.1c-2.1-1.3-2.9-3.5-2.9-5.9c0-16.2,0-32.5,0-48.7C5.1,166.2,5.1,151.4,5.1,136.7z
			 M48.8,97.4c0,25.9,0,51.7,0,77.6c0,1.5,1.6,3.1,3.1,3.1c2,0,4-0.2,6-0.2c1.5,0,3,0.1,4.5,0.2c3.6,0.2,7.3,0.4,10.9,0.7
			c3.6,0.4,7.3,0.7,10.9,1.5c5.7,1.2,11.3,2.5,16.8,4.1c7,2.1,13.7,5,20.2,8.6c5.2,2.9,10.2,6.2,14.7,10.1c1.4,1.2,2.7,2.3,4.8,2
			c1.4-0.2,3-1.6,3-3.1c0-7.8,0-15.7,0-23.5c0-40,0-80,0-120c0-0.4,0.1-1-0.1-1.3c-1.5-2.3-2.8-4.7-4.6-6.7
			c-3.2-3.7-6.5-7.2-9.9-10.6c-2.2-2.2-4.8-4.1-7.3-6c-4.5-3.3-9.5-5.9-14.6-8.2c-4.7-2.1-9.6-3.7-14.6-5
			c-5.3-1.4-10.7-2.4-16.2-2.9c-3.7-0.3-7.4-0.8-11.1-0.9c-4.4-0.2-8.8,0-13.2,0c-1.7,0-3.2,1.5-3.2,3.2
			C48.8,45.8,48.8,71.6,48.8,97.4z M251.3,97.6c0-25.8,0-51.5,0-77.3c0-0.3,0-0.6,0-0.8c0-0.9-1.7-2.7-2.7-2.6
			c-6.4,0.1-12.8,0.2-19.2,0.5c-4.1,0.2-8.2,0.7-12.2,1.5c-5.3,1-10.5,2.3-15.7,3.8c-6.1,1.8-11.9,4.4-17.5,7.7
			c-4.6,2.7-9,5.8-12.9,9.5c-2.6,2.4-5.1,5-7.4,7.7c-2.4,2.8-4.4,5.8-6.6,8.8c-0.6,0.8-0.7,1.7-0.7,2.8c0,47.5,0,95,0,142.6
			c0,0.3,0,0.6,0,1c0,0.3,0.1,0.6,0.3,0.7c1,1.1,1.9,2,3.6,1.8c1.2-0.1,2.2-0.2,3-1.3c0.2-0.3,0.6-0.5,0.9-0.7
			c4.1-3.4,8.5-6.4,13.1-9.1c5.7-3.4,11.8-6.1,18-8.3c6.4-2.3,12.9-4.1,19.6-5.1c5.2-0.8,10.3-1.6,15.5-2.1
			c3.9-0.4,7.9-0.4,11.8-0.5c1.9,0,3.8,0.2,5.7,0.2c1.8,0,3.3-1.5,3.3-3.2C251.3,149.1,251.3,123.3,251.3,97.6z M282,134.9
			c0-27.5,0-55,0-82.6c0-1.6-1.5-3.1-3.2-3.1c-3.8,0-7.5,0-11.3,0c-1.9,0-3.3,1.5-3.3,3.3c0,43.5,0,87,0,130.6c0,1.7-0.5,3.4-1,5
			c-0.6,1.9-4,3.9-5.8,3.7c-2.3-0.3-4.6-0.7-6.9-0.7c-7.4,0.1-14.9-0.5-22.3,0.4c-3.3,0.4-6.6,0.8-9.8,1.2
			c-5.5,0.7-10.9,2.1-16.2,3.7c-7.4,2.3-14.3,5.5-20.8,9.6c-2,1.3-4,2.6-3.4,5.6c0.2,1,1.7,2.7,2.8,2.7c1.6-0.1,3.2-0.3,4.8-0.5
			c2.9-0.3,5.8-0.7,8.7-1c3.8-0.4,7.5-0.8,11.3-0.9c3.7-0.2,7.5-0.1,11.2,0c2,0,4,0.1,6,0.2c3.5,0.2,6.9,0.4,10.4,0.7
			c3.3,0.3,6.5,0.5,9.8,1c4.5,0.6,9.1,1.3,13.6,2.2c4.5,0.8,8.9,1.9,13.3,2.8c3,0.6,6,1.3,9.1,1.7c1.7,0.2,3.3-1.4,3.3-3.2
			C282,189.9,282,162.4,282,134.9z M18,134.9c0,27.5,0,55,0,82.6c0,0.6,0.3,1.2,0.6,1.7c1.2,1.9,3.1,1.7,4.9,1.3
			c3.6-0.7,7.2-1.7,10.8-2.5c4.3-0.9,8.5-1.7,12.8-2.5c3.4-0.6,6.9-1.2,10.3-1.6c3.2-0.4,6.5-0.7,9.8-1c4.6-0.4,9.1-0.7,13.7-0.9
			c3.5-0.2,7,0,10.5,0c1.4,0,2.8-0.1,4.2,0c3.7,0.3,7.5,0.6,11.2,0.9c1.7,0.2,3.4,0.4,5,0.6c2.5,0.3,5,0.6,7.5,0.8
			c0.8,0.1,2.6-1.5,2.7-2.3c0.3-2.2-0.2-3.9-2.2-5.2c-6.1-4-12.7-7.2-19.6-9.5c-7.8-2.7-15.7-4.5-23.9-5.3
			c-4.4-0.4-8.7-0.8-13.1-0.9c-4.4-0.2-8.9-0.1-13.3,0c-1.7,0-3.3,0.3-4.9,0.4c-1.3,0.1-2.7,0.3-4-0.1c-1.3-0.4-2.8-1-3.6-2
			c-1.3-1.6-1.8-3.7-1.8-5.8c0-43.7,0-87.4,0-131.2c0-1.7-1.5-3.2-3.2-3.2c-3.8,0-7.6,0-11.4,0c-1.7,0-3.2,1.5-3.2,3.2
			C18,79.9,18,107.4,18,134.9z"/>
	</g>
</g>
</svg>
