<?xml version="1.0" encoding="utf-8"?>
<!-- Generator: Adobe Illustrator 16.0.4, SVG Export Plug-In . SVG Version: 6.00 Build 0)  -->
<!DOCTYPE svg PUBLIC "-//W3C//DTD SVG 1.1//EN" "http://www.w3.org/Graphics/SVG/1.1/DTD/svg11.dtd">
<svg version="1.1" id="open-book_xA0_Image_1_" xmlns="http://www.w3.org/2000/svg" xmlns:xlink="http://www.w3.org/1999/xlink"
	 x="0px" y="0px" width="600px" height="500px" viewBox="5.898 143.764 600 500" enable-background="new 5.898 143.764 600 500"
	 xml:space="preserve">
<g>
	<g>
		<path d="M10.404,426.906c0-63.036,0-126.072,0-189.108c0-10.608,5.1-15.096,15.504-15.504c13.668-0.408,27.336-0.204,40.8-0.204
			c2.856,0,6.12-3.264,6.12-6.12c0-13.872,0-27.744,0-41.616c0-4.08,1.224-7.752,3.264-11.016c1.836-3.06,5.1-4.08,8.364-4.692
			c4.488-1.02,8.976-1.428,13.464-1.632c10.404-0.408,20.808-1.02,31.212-0.816c7.548,0,14.892,1.02,22.44,1.836
			c7.14,0.816,14.28,1.632,21.42,3.06c10.812,2.244,21.828,4.896,32.436,7.956c13.464,3.876,26.52,9.588,38.76,16.116
			c10.2,5.508,19.992,11.628,28.764,18.972c5.508,4.692,11.016,9.18,16.116,14.28c4.08,4.08,7.752,8.568,11.424,12.852
			c1.224,1.428,2.448,1.632,4.284,1.836c3.672,0.408,6.121-0.816,8.364-3.468c2.856-3.468,5.712-6.936,8.772-10.2
			c3.06-3.264,6.12-6.528,9.792-9.18c7.344-5.916,14.892-11.628,22.644-16.932c12.036-8.16,25.093-14.28,38.353-19.38
			c11.424-4.488,23.256-7.956,35.292-10.608c7.752-1.632,15.708-3.06,23.664-4.08c9.18-1.224,18.156-1.836,27.336-2.448
			c7.956-0.408,16.116-0.816,24.072-0.408c7.956,0.408,16.115,1.224,24.071,2.448c8.364,1.224,11.425,6.936,11.628,14.892
			c0.408,14.076,0.204,28.152,0.204,42.432c0,3.264,3.061,6.324,6.324,6.324c13.26,0,26.521,0,39.984,0
			c4.08,0,7.752,1.224,11.016,3.264c3.061,1.836,3.672,5.1,4.692,7.956c0.408,1.428,0.611,3.264,0.611,4.692
			c0,125.868,0,251.735,0,377.604c0,8.772-4.08,13.464-12.239,15.301c-1.021,0.203-2.244-0.204-3.265-0.408
			c-12.443-3.469-24.888-7.345-37.536-10.404c-10.199-2.448-20.399-4.284-30.804-6.12c-6.936-1.224-13.668-2.448-20.604-3.468
			c-4.896-0.612-9.792-1.224-14.688-1.428c-9.18-0.816-18.563-1.633-27.744-1.836c-13.464-0.408-26.928-0.612-40.596-0.408
			c-6.732,0-13.464,0.611-19.992,1.428c-12.647,1.836-25.092,3.876-37.536,6.12c-12.443,2.244-24.275,6.528-36.107,11.016
			c-3.469,1.225-6.937,2.652-10.404,4.488c-3.468,1.632-6.528,1.021-9.792-0.408c-14.484-6.731-29.784-11.628-45.288-15.096
			c-8.772-2.04-17.748-3.264-26.724-4.488c-8.976-1.224-17.952-2.04-26.928-2.448c-14.484-0.407-29.172-0.611-43.656-0.407
			c-7.956,0-15.708,1.224-23.664,1.836c-5.304,0.408-10.812,0.815-16.116,1.428c-5.712,0.612-11.628,1.428-17.34,2.448
			c-6.936,1.224-13.668,2.448-20.4,3.876c-7.752,1.632-15.504,3.264-23.052,5.1c-11.016,2.856-22.032,6.12-32.844,8.977
			c-3.264,0.815-5.712-0.816-8.16-2.244c-4.284-2.652-5.916-7.141-5.916-12.036c0-33.048,0-66.3,0-99.348
			C10.404,487.086,10.404,456.894,10.404,426.906z M99.552,346.734c0,52.836,0,105.468,0,158.304c0,3.06,3.264,6.324,6.324,6.324
			c4.08,0,8.16-0.408,12.24-0.408c3.06,0,6.12,0.204,9.18,0.408c7.344,0.407,14.892,0.815,22.236,1.428
			c7.344,0.815,14.892,1.428,22.236,3.06c11.628,2.448,23.052,5.101,34.272,8.364c14.28,4.284,27.948,10.2,41.208,17.544
			c10.608,5.916,20.808,12.648,29.988,20.604c2.856,2.447,5.508,4.691,9.792,4.08c2.856-0.408,6.12-3.265,6.12-6.324
			c0-15.912,0-32.028,0-47.94c0-81.6,0-163.2,0-244.8c0-0.816,0.204-2.04-0.204-2.652c-3.06-4.692-5.712-9.588-9.384-13.668
			c-6.528-7.548-13.26-14.688-20.196-21.624c-4.488-4.488-9.792-8.364-14.892-12.24c-9.18-6.732-19.38-12.036-29.784-16.728
			c-9.588-4.284-19.584-7.548-29.784-10.2c-10.812-2.856-21.828-4.896-33.048-5.916c-7.548-0.612-15.096-1.632-22.644-1.836
			c-8.976-0.408-17.952,0-26.928,0c-3.468,0-6.528,3.06-6.528,6.528C99.552,241.47,99.552,294.102,99.552,346.734z M512.652,347.142
			c0-52.632,0-105.06,0-157.692c0-0.612,0-1.224,0-1.632c0-1.836-3.469-5.508-5.509-5.304c-13.056,0.204-26.111,0.408-39.168,1.02
			c-8.363,0.408-16.728,1.428-24.888,3.06c-10.812,2.04-21.42,4.692-32.028,7.752c-12.443,3.672-24.275,8.976-35.699,15.708
			c-9.385,5.508-18.36,11.832-26.316,19.38c-5.304,4.896-10.404,10.2-15.096,15.708c-4.896,5.712-8.977,11.832-13.464,17.952
			c-1.225,1.632-1.429,3.468-1.429,5.712c0,96.9,0,193.799,0,290.904c0,0.612,0,1.224,0,2.04c0,0.612,0.204,1.224,0.612,1.428
			c2.04,2.244,3.876,4.08,7.344,3.672c2.448-0.204,4.488-0.407,6.12-2.651c0.408-0.612,1.225-1.021,1.836-1.429
			c8.364-6.936,17.34-13.056,26.725-18.563c11.628-6.937,24.071-12.444,36.72-16.932c13.056-4.692,26.316-8.364,39.984-10.404
			c10.607-1.632,21.012-3.265,31.619-4.284c7.956-0.816,16.116-0.816,24.072-1.02c3.876,0,7.752,0.407,11.628,0.407
			c3.672,0,6.732-3.06,6.732-6.527C512.652,452.202,512.652,399.57,512.652,347.142z M575.28,423.234c0-56.101,0-112.2,0-168.504
			c0-3.264-3.061-6.324-6.528-6.324c-7.752,0-15.3,0-23.052,0c-3.876,0-6.732,3.06-6.732,6.732c0,88.74,0,177.48,0,266.424
			c0,3.469-1.02,6.937-2.04,10.2c-1.224,3.876-8.16,7.956-11.832,7.548c-4.691-0.611-9.384-1.428-14.075-1.428
			c-15.097,0.204-30.396-1.02-45.492,0.816c-6.732,0.815-13.464,1.632-19.992,2.447c-11.22,1.429-22.236,4.284-33.048,7.549
			c-15.097,4.691-29.172,11.22-42.433,19.584c-4.08,2.651-8.159,5.304-6.936,11.424c0.408,2.04,3.468,5.508,5.712,5.508
			c3.264-0.204,6.528-0.612,9.792-1.02c5.916-0.612,11.832-1.429,17.748-2.04c7.752-0.816,15.3-1.633,23.052-1.836
			c7.548-0.408,15.3-0.204,22.849,0c4.079,0,8.159,0.203,12.239,0.407c7.141,0.408,14.076,0.816,21.217,1.429
			c6.731,0.611,13.26,1.02,19.991,2.04c9.181,1.224,18.564,2.651,27.744,4.487c9.181,1.632,18.156,3.876,27.132,5.712
			c6.12,1.225,12.24,2.652,18.564,3.469c3.468,0.407,6.731-2.856,6.731-6.528C575.28,535.434,575.28,479.334,575.28,423.234z
			 M36.72,423.234c0,56.1,0,112.199,0,168.504c0,1.224,0.612,2.447,1.224,3.468c2.448,3.876,6.324,3.468,9.996,2.652
			c7.344-1.429,14.688-3.469,22.032-5.101c8.772-1.836,17.34-3.468,26.112-5.1c6.936-1.225,14.076-2.448,21.012-3.265
			c6.528-0.815,13.26-1.428,19.992-2.04c9.384-0.815,18.564-1.428,27.948-1.836c7.14-0.407,14.28,0,21.42,0
			c2.856,0,5.712-0.204,8.568,0c7.548,0.612,15.3,1.225,22.848,1.836c3.468,0.408,6.936,0.816,10.2,1.225
			c5.1,0.612,10.2,1.224,15.3,1.632c1.632,0.204,5.304-3.06,5.508-4.692c0.612-4.487-0.408-7.956-4.488-10.607
			c-12.444-8.16-25.908-14.688-39.984-19.38c-15.912-5.509-32.028-9.181-48.756-10.812c-8.976-0.815-17.748-1.632-26.724-1.836
			c-8.976-0.408-18.156-0.204-27.132,0c-3.468,0-6.732,0.612-9.996,0.816c-2.652,0.204-5.508,0.611-8.16-0.204
			c-2.652-0.816-5.712-2.04-7.344-4.08c-2.652-3.264-3.672-7.548-3.672-11.832c0-89.148,0-178.296,0-267.648
			c0-3.468-3.06-6.528-6.528-6.528c-7.752,0-15.504,0-23.256,0c-3.468,0-6.528,3.06-6.528,6.528
			C36.72,311.034,36.72,367.134,36.72,423.234z"/>
	</g>
</g>
<g>
	<path fill="none" stroke="#000000" stroke-width="12" stroke-linecap="round" stroke-miterlimit="10" d="M137.585,386.514
		c54.956-2.305,111.094,20.875,124.75,32.5"/>
	<path fill="none" stroke="#000000" stroke-width="12" stroke-linecap="round" stroke-miterlimit="10" d="M137.585,454.512
		c63.915-2.68,102.134,13.25,124.75,32.5"/>
	<path fill="none" stroke="#000000" stroke-width="12" stroke-linecap="round" stroke-miterlimit="10" d="M137.585,258.332
		c54.958-2.305,111.092,20.875,124.75,32.5"/>
	<path fill="none" stroke="#000000" stroke-width="12" stroke-linecap="round" stroke-miterlimit="10" d="M137.585,323.33
		c54.957-2.305,111.092,20.875,124.75,32.5"/>
</g>
<g>
	<path fill="none" stroke="#000000" stroke-width="12" stroke-linecap="round" stroke-miterlimit="10" d="M351.981,290.167
		c41.092-31.109,104.459-35.323,124.75-33.675"/>
	<path fill="none" stroke="#000000" stroke-width="12" stroke-linecap="round" stroke-miterlimit="10" d="M351.982,355.82
		c41.092-31.109,104.459-35.323,124.75-33.675"/>
	<path fill="none" stroke="#000000" stroke-width="12" stroke-linecap="round" stroke-miterlimit="10" d="M351.981,418.664
		c41.092-31.11,104.459-35.324,124.75-33.675"/>
	<path fill="none" stroke="#000000" stroke-width="12" stroke-linecap="round" stroke-miterlimit="10" d="M351.981,484.32
		c41.092-31.109,104.459-35.323,124.75-33.675"/>
</g>
</svg>
