<?xml version="1.0" encoding="utf-8"?>
<!-- Generator: Adobe Illustrator 16.0.4, SVG Export Plug-In . SVG Version: 6.00 Build 0)  -->
<!DOCTYPE svg PUBLIC "-//W3C//DTD SVG 1.1//EN" "http://www.w3.org/Graphics/SVG/1.1/DTD/svg11.dtd">
<svg version="1.1" id="Capa_1" xmlns="http://www.w3.org/2000/svg" xmlns:xlink="http://www.w3.org/1999/xlink" x="0px" y="0px"
	 width="612px" height="612.001px" viewBox="0 90 612 612.001" enable-background="new 0 90 612 612.001" xml:space="preserve">
<g>
	<g>
		<path fill="none" stroke="#000000" stroke-width="15" stroke-miterlimit="10" d="M373.246,234.404
			c-9.276-9.284-18.998-14.396-32.123-14.396c-10.583,0-26.754,10.933-35.118,17.087c-8.372-6.154-25.419-17.087-36.003-17.087
			c-13.125,0-21.976,5.113-31.25,14.393c-19.151,19.148-19.152,50.315,0,69.478l61.541,58.037c1.579,1.578,3.647,2.368,5.715,2.368
			c2.069,0,4.139-0.79,5.717-2.369l61.521-58.039C392.392,284.715,392.392,253.55,373.246,234.404z"/>
	</g>
</g>
<g>
	<g>
		<path d="M590.362,634.001h-89.636V148.727c0-32.382-26.345-58.727-58.726-58.727H71.089c-32.381,0-58.727,26.345-58.727,58.727
			c0,5.122,4.151,9.272,9.272,9.272h370.911c5.121,0,9.272-4.151,9.272-9.272c0-22.157,18.023-40.182,40.182-40.182
			s40.182,18.025,40.182,40.182v494.547c0,15.532,6.073,29.668,15.956,40.182H169.999c-22.156,0-40.182-18.025-40.182-40.182V185.82
			c0-5.122-4.151-9.272-9.272-9.272s-9.272,4.151-9.272,9.272v457.456c0,32.38,26.345,58.726,58.727,58.726h370.912
			c32.381,0,58.727-26.345,58.727-58.727C599.636,638.152,595.484,634.001,590.362,634.001z M384.015,139.454H32
			c4.199-17.699,20.125-30.908,39.089-30.908H399.23C391.357,116.923,385.902,127.599,384.015,139.454z M540.91,683.455
			c-18.964,0-34.893-13.21-39.089-30.909h78.178C575.8,670.245,559.874,683.455,540.91,683.455z"/>
	</g>
</g>
<g>
	<g>
		<path d="M238.368,426.532c-3.621-3.62-9.492-3.62-13.114,0L207.087,444.7l-5.805-5.809c-3.621-3.617-9.492-3.617-13.114,0
			c-3.622,3.622-3.622,9.492,0,13.115l12.362,12.362c1.811,1.81,4.184,2.715,6.557,2.715s4.747-0.905,6.556-2.715l24.725-24.728
			C241.99,436.023,241.99,430.153,238.368,426.532z"/>
	</g>
</g>
<g>
	<g>
		<path d="M404.901,436.18H268.907c-5.121,0-9.272,4.15-9.272,9.271c0,5.122,4.151,9.271,9.272,9.271H404.9
			c5.118,0,9.271-4.149,9.271-9.271C414.172,440.329,410.022,436.18,404.901,436.18z"/>
	</g>
</g>
<g>
	<g>
		<path d="M238.368,500.709c-3.621-3.619-9.492-3.619-13.114,0l-18.167,18.169l-5.806-5.806c-3.621-3.619-9.492-3.619-13.114,0
			c-3.621,3.622-3.621,9.492,0.001,13.112l12.362,12.361c1.811,1.812,4.184,2.716,6.557,2.716s4.747-0.903,6.556-2.716
			l24.725-24.724C241.991,510.202,241.991,504.332,238.368,500.709z"/>
	</g>
</g>
<g>
	<g>
		<path d="M343.078,510.358h-74.17c-5.121,0-9.272,4.148-9.272,9.271s4.15,9.272,9.272,9.272h74.17c5.121,0,9.271-4.151,9.271-9.272
			S348.199,510.358,343.078,510.358z"/>
	</g>
</g>
<g>
	<g>
		<path d="M238.368,574.887c-3.621-3.619-9.492-3.619-13.114,0l-18.167,18.169l-5.805-5.806c-3.621-3.619-9.492-3.619-13.114,0
			c-3.621,3.623-3.621,9.493,0.001,13.115l12.362,12.359c1.811,1.812,4.184,2.718,6.556,2.718s4.747-0.905,6.556-2.718L238.368,588
			C241.991,584.38,241.991,578.51,238.368,574.887z"/>
	</g>
</g>
<g>
	<g>
		<path d="M417.266,584.537H268.907c-5.121,0-9.272,4.15-9.272,9.271c-0.001,5.121,4.15,9.272,9.272,9.272h148.355
			c5.12,0,9.271-4.151,9.271-9.272C426.536,588.688,422.387,584.537,417.266,584.537z"/>
	</g>
</g>
</svg>
