<?xml version="1.0" encoding="utf-8"?>
<!-- Generator: Adobe Illustrator 16.0.4, SVG Export Plug-In . SVG Version: 6.00 Build 0)  -->
<!DOCTYPE svg PUBLIC "-//W3C//DTD SVG 1.1//EN" "http://www.w3.org/Graphics/SVG/1.1/DTD/svg11.dtd">
<svg version="1.1" id="Capa_1" xmlns="http://www.w3.org/2000/svg" xmlns:xlink="http://www.w3.org/1999/xlink" x="0px" y="0px"
	 width="612px" height="612px" viewBox="0 90 612 612" enable-background="new 0 90 612 612" xml:space="preserve">
<g>
	<path fill="none" stroke="#000000" stroke-width="18" stroke-linecap="round" stroke-miterlimit="10" d="M194.5,445.451
		c0,0,10.333,11.882,13,12.049S232,432,232,432"/>
	<path fill="none" stroke="#000000" stroke-width="18" stroke-linecap="round" stroke-miterlimit="10" d="M194.5,519.33
		c0,0,10.333,11.882,13,12.049s24.5-25.5,24.5-25.5"/>
	<path fill="none" stroke="#000000" stroke-width="18" stroke-linecap="round" stroke-miterlimit="10" d="M194.5,593.51
		c0,0,10.333,11.882,13,12.049s24.5-25.5,24.5-25.5"/>
</g>
<g>
	<line fill="none" stroke="#000000" stroke-width="18" stroke-linecap="round" stroke-miterlimit="10" x1="268.5" y1="445.451" x2="407" y2="445.451"/>
	<line fill="none" stroke="#000000" stroke-width="18" stroke-linecap="round" stroke-miterlimit="10" x1="268.5" y1="519.631" x2="343.086" y2="519.631"/>
	<line fill="none" stroke="#000000" stroke-width="18" stroke-linecap="round" stroke-miterlimit="10" x1="268.5" y1="593.809" x2="417.5" y2="593.809"/>
</g>
<g>
	<g>
		<path d="M379.135,225.913c-10.641-10.649-24.792-16.513-39.847-16.513c-12.139,0-23.688,3.812-33.281,10.871
			c-9.603-7.06-21.158-10.871-33.297-10.871c-15.055,0-29.207,5.864-39.845,16.509c-21.967,21.964-21.969,57.713,0,79.694
			l66.59,66.571c1.811,1.81,4.184,2.716,6.556,2.716c2.373,0,4.747-0.906,6.558-2.717l66.566-66.573
			C401.096,283.623,401.096,247.875,379.135,225.913z M366.018,292.489l-60.008,60.015l-60.03-60.013
			c-14.738-14.747-14.74-38.73,0.001-53.47c7.138-7.144,16.63-11.077,26.729-11.077c10.101,0,19.6,3.934,26.745,11.08
			c1.738,1.739,4.098,2.715,6.556,2.715c0.001,0,0.003,0,0.003,0c2.462-0.001,4.82-0.979,6.559-2.72
			c7.131-7.142,16.618-11.074,26.716-11.074c10.1,0,19.592,3.934,26.731,11.079C380.752,253.759,380.75,277.744,366.018,292.489z"/>
	</g>
</g>
<g>
	<g>
		<path d="M590.362,634.001h-89.634V148.727c0-32.382-26.345-58.727-58.726-58.727H71.089c-32.381,0-58.727,26.345-58.727,58.727
			c0,5.122,4.151,9.272,9.272,9.272h370.911c5.121,0,9.272-4.151,9.272-9.272c0-22.157,18.025-40.182,40.182-40.182
			s40.182,18.025,40.182,40.182v494.547c0,15.534,6.073,29.668,15.956,40.182H169.999c-22.156,0-40.182-18.025-40.182-40.182V185.82
			c0-5.122-4.151-9.272-9.272-9.272s-9.272,4.151-9.272,9.272v457.454C111.273,675.654,137.618,702,170,702h370.912
			c32.381,0,58.727-26.345,58.727-58.727C599.636,638.152,595.484,634.001,590.362,634.001z M384.015,139.454H32
			c4.199-17.699,20.125-30.908,39.089-30.908H399.23C391.357,116.923,385.902,127.599,384.015,139.454z M540.91,683.455
			c-18.964,0-34.891-13.21-39.089-30.909h78.178C575.8,670.245,559.874,683.455,540.91,683.455z"/>
	</g>
</g>
</svg>
