<?xml version="1.0" encoding="utf-8"?>
<!-- Generator: Adobe Illustrator 16.0.4, SVG Export Plug-In . SVG Version: 6.00 Build 0)  -->
<!DOCTYPE svg PUBLIC "-//W3C//DTD SVG 1.1//EN" "http://www.w3.org/Graphics/SVG/1.1/DTD/svg11.dtd">
<svg version="1.1" id="Capa_1" xmlns="http://www.w3.org/2000/svg" xmlns:xlink="http://www.w3.org/1999/xlink" x="0px" y="0px"
	 width="612px" height="625px" viewBox="0 44.064 612 625" enable-background="new 0 44.064 612 625" xml:space="preserve">
<g>
	<g>
		<path d="M384.261,140.945c-11.323-11.333-26.383-17.575-42.406-17.573c-13.099,0-25.55,4.17-35.842,11.882
			c-10.302-7.713-22.761-11.882-35.859-11.882c-16.023,0-31.085,6.241-42.407,17.571c-23.379,23.377-23.38,61.424,0,84.817
			l71.712,71.691c1.811,1.81,4.184,2.716,6.557,2.716s4.746-0.906,6.557-2.717l71.688-71.694
			C407.635,202.365,407.634,164.318,384.261,140.945z M371.145,212.646l-65.129,65.135l-65.153-65.134
			c-16.151-16.159-16.152-42.442,0-58.592c7.821-7.828,18.224-12.139,29.291-12.139c11.068,0,21.476,4.312,29.307,12.141
			c1.739,1.739,4.096,2.716,6.556,2.716c0.001,0,0.003,0,0.004,0c2.46-0.001,4.819-0.979,6.558-2.721
			c7.813-7.827,18.211-12.136,29.276-12.136c11.066,0,21.468,4.311,29.29,12.141C387.292,170.204,387.291,196.488,371.145,212.646z"
			/>
	</g>
</g>
<g>
	<g>
		<path d="M429.636,303.9c-46.356,0-89.938,17.108-123.71,48.371C273.41,322.264,229.994,303.9,182.364,303.9
			C81.809,303.9,0,385.708,0,486.264c0,100.556,81.809,182.364,182.364,182.364c46.354,0,89.935-17.108,123.71-48.37
			c32.516,30.007,75.932,48.37,123.562,48.37C530.192,668.628,612,586.821,612,486.264C612,385.707,530.192,303.9,429.636,303.9z
			 M182.363,650.078c-90.329,0.005-163.817-73.484-163.817-163.814c0-90.33,73.489-163.818,163.819-163.818
			c90.33,0,163.817,73.489,163.817,163.818c0,28.792-7.438,56.68-21.606,81.375c-2.834-3.649-5.477-7.427-7.907-11.341
			c5.101-9.759,9.128-20.059,11.98-30.69c3.438-12.771,5.169-26.014,5.169-39.341c0-20.449-4.007-40.281-11.906-58.949
			c-6.961-16.458-16.667-31.378-28.878-44.431c-0.051-0.055-0.1-0.111-0.154-0.165c-1.122-1.196-2.258-2.383-3.423-3.549
			c-13.909-13.909-30.105-24.827-48.144-32.455c-18.669-7.9-38.5-11.907-58.949-11.907c-12.524,0-24.961,1.534-36.992,4.55
			c-11.683,2.93-23.009,7.283-33.678,12.92c-10.484,5.526-20.326,12.314-29.253,20.166c-8.89,7.812-16.863,16.653-23.701,26.297
			c-1.434,2.027-1.99,4.476-1.57,6.924c0.407,2.436,1.756,4.574,3.771,6.009c1.583,1.112,3.425,1.705,5.353,1.705
			c3.005,0,5.835-1.458,7.58-3.907c12.055-16.987,28.127-31.105,46.475-40.8c9.359-4.945,19.299-8.753,29.549-11.324
			c10.558-2.658,21.476-3.994,32.467-3.994c17.953,0,35.36,3.511,51.729,10.435c15.01,6.347,28.559,15.333,40.355,26.672
			c-17.794,28.758-27.175,61.71-27.175,95.799c0,35.102,9.979,67.912,27.233,95.763c-4.704,4.525-9.733,8.714-15.03,12.494
			c-7.282,5.207-15.108,9.669-23.256,13.291c-16.976,7.53-35.1,11.362-53.856,11.362c-16.196,0-32.022-2.88-47.031-8.567
			c-12.425-4.698-24.072-11.238-34.593-19.449c-10.423-8.122-19.572-17.717-27.176-28.522c-15.777-22.44-24.109-48.85-24.109-76.371
			c0-15.912,2.782-31.478,8.271-46.253c1.78-4.796-0.68-10.138-5.477-11.918c-1.039-0.384-2.126-0.581-3.228-0.581
			c-3.845,0-7.344,2.423-8.692,6.046c-6.255,16.84-9.42,34.58-9.42,52.706c0.012,31.366,9.508,61.46,27.484,87.016
			c8.654,12.326,19.077,23.257,30.959,32.516c11.992,9.348,25.246,16.804,39.415,22.155c17.111,6.479,35.138,9.769,53.597,9.769
			l0.025-0.062v0.062c21.34,0,41.986-4.366,61.36-12.956c9.297-4.131,18.212-9.225,26.507-15.146
			c5.225-3.726,10.222-7.797,14.941-12.163c2.524,3.271,5.157,6.453,7.892,9.543C262.805,634.842,223.82,650.078,182.363,650.078z
			 M315.273,486.267c0,11.721-1.521,23.342-4.525,34.531c-1.307,4.861-2.906,9.64-4.76,14.322
			c-6.146-15.527-9.26-31.947-9.26-48.854c-0.001-11.72,1.519-23.342,4.524-34.545c1.305-4.856,2.903-9.631,4.753-14.308
			C312.158,452.948,315.273,469.366,315.273,486.267z M429.636,650.083c-90.329,0-163.818-73.489-163.818-163.819
			c0-28.79,7.437-56.679,21.605-81.374c2.831,3.648,5.471,7.423,7.899,11.333c-5.096,9.763-9.121,20.065-11.973,30.69
			c-3.437,12.784-5.167,26.014-5.167,39.354c0,20.449,4.005,40.28,11.906,58.949c6.971,16.484,16.696,31.424,28.933,44.489
			c0.025,0.026,0.048,0.055,0.074,0.08c1.132,1.206,2.274,2.401,3.448,3.575c13.909,13.909,30.105,24.827,48.144,32.455
			c18.67,7.9,38.501,11.906,58.963,11.906c12.513,0,24.963-1.533,36.991-4.562c11.672-2.928,22.996-7.27,33.667-12.906
			c10.484-5.539,20.325-12.326,29.252-20.167c8.89-7.812,16.864-16.652,23.701-26.297c2.955-4.179,1.967-9.977-2.2-12.932
			c-1.583-1.113-3.438-1.706-5.366-1.706c-3.005,0-5.836,1.459-7.565,3.908c-12.055,16.986-28.127,31.094-46.488,40.799
			c-9.347,4.945-19.287,8.754-29.536,11.326c-10.559,2.646-21.477,3.992-32.468,3.992c-17.952,0-35.36-3.522-51.742-10.447
			c-14.995-6.348-28.544-15.332-40.341-26.67c17.794-28.757,27.173-61.706,27.173-95.794c0-35.104-9.98-67.917-27.237-95.769
			c4.705-4.525,9.739-8.716,15.035-12.498c7.281-5.192,15.107-9.667,23.256-13.291c16.987-7.529,35.102-11.35,53.856-11.35
			c16.195,0,32.021,2.881,47.031,8.556c0.061,0.025,0.123,0.049,0.172,0.061l0.025,0.013c12.4,4.723,24.022,11.274,34.52,19.473
			c10.397,8.122,19.521,17.729,27.102,28.523c15.752,22.415,24.07,48.8,24.059,76.283c0,15.912-2.781,31.478-8.271,46.253
			c-0.853,2.323-0.766,4.834,0.272,7.083c1.025,2.263,2.868,3.969,5.191,4.834c1.052,0.384,2.128,0.582,3.228,0.582
			c3.857,0,7.357-2.424,8.704-6.047c6.255-16.863,9.422-34.593,9.422-52.706c-0.013-31.367-9.509-61.46-27.485-87.027
			c-8.654-12.314-19.064-23.257-30.945-32.504c-11.993-9.348-25.26-16.803-39.429-22.169c-17.111-6.478-35.149-9.755-53.596-9.755
			h-0.012c-21.341,0-41.986,4.353-61.361,12.958c-9.297,4.115-18.224,9.21-26.52,15.146c-5.225,3.726-10.222,7.797-14.939,12.159
			c-2.525-3.27-5.157-6.453-7.894-9.543c30.281-27.847,69.268-43.085,110.726-43.085c90.33,0,163.819,73.489,163.819,163.818
			C593.455,576.594,519.966,650.083,429.636,650.083z"/>
	</g>
</g>
<line fill="none" stroke="#000000" stroke-width="8" stroke-linecap="round" stroke-miterlimit="10" x1="306" y1="92.166" x2="306" y2="48.5"/>
<line fill="none" stroke="#000000" stroke-width="8" stroke-linecap="round" stroke-miterlimit="10" x1="194.2" y1="126.207" x2="155.875" y2="87.881"/>
<line fill="none" stroke="#000000" stroke-width="8" stroke-linecap="round" stroke-miterlimit="10" x1="417.65" y1="126.451" x2="455.755" y2="88.347"/>
<line fill="none" stroke="#000000" stroke-width="8" stroke-linecap="round" stroke-miterlimit="10" x1="244.189" y1="102.296" x2="230.121" y2="68.333"/>
<line fill="none" stroke="#000000" stroke-width="8" stroke-linecap="round" stroke-miterlimit="10" x1="370.811" y1="102.296" x2="384.88" y2="68.333"/>
</svg>
